HIERARCHY
ROOT Hips
{
	OFFSET 0.000000 0.000000 0.000000
	CHANNELS 6 Xposition Yposition Zposition Xrotation Yrotation Zrotation
	JOINT Spine
	{
		OFFSET 0.000000 4.617136 -6.925691
		CHANNELS 3 Xrotation Yrotation Zrotation
		JOINT Spine1
		{
			OFFSET 0.000000 1.603502 -9.093962
			CHANNELS 3 Xrotation Yrotation Zrotation
			JOINT Spine2
			{
				OFFSET 0.000000 0.804824 -9.199118
				CHANNELS 3 Xrotation Yrotation Zrotation
				JOINT Spine3
				{
					OFFSET 0.000000 0.000000 -9.234246
					CHANNELS 3 Xrotation Yrotation Zrotation
					JOINT Neck
					{
						OFFSET 0.000003 -3.462833 -24.239906
						CHANNELS 3 Xrotation Yrotation Zrotation
						JOINT Head
						{
							OFFSET 0.000000 -2.204822 -12.504194
							CHANNELS 3 Xrotation Yrotation Zrotation
							End Site
							{
								OFFSET 0.000003 0.000000 -14.947953
							}
						}
					}
					JOINT RightShoulder
					{
						OFFSET 2.917647 -4.862754 -15.755341
						CHANNELS 3 Xrotation Yrotation Zrotation
						JOINT RightArm
						{
							OFFSET 14.491005 0.000000 0.000000
							CHANNELS 3 Xrotation Yrotation Zrotation
							JOINT RightForeArm
							{
								OFFSET 28.886760 0.000000 0.000005
								CHANNELS 3 Xrotation Yrotation Zrotation
								JOINT RightHand
								{
									OFFSET 21.960279 0.000000 0.000000
									CHANNELS 3 Xrotation Yrotation Zrotation
									End Site
									{
										OFFSET 6.589316 0.000000 0.000000
									}
								}
							}
						}
					}
					JOINT LeftShoulder
					{
						OFFSET -2.917645 -4.862754 -15.755341
						CHANNELS 3 Xrotation Yrotation Zrotation
						JOINT LeftArm
						{
							OFFSET -14.491005 0.000000 0.000000
							CHANNELS 3 Xrotation Yrotation Zrotation
							JOINT LeftForeArm
							{
								OFFSET -28.886760 0.000000 -0.000005
								CHANNELS 3 Xrotation Yrotation Zrotation
								JOINT LeftHand
								{
									OFFSET -21.960279 0.000000 0.000000
									CHANNELS 3 Xrotation Yrotation Zrotation
									End Site
									{
										OFFSET -6.589316 0.000000 0.000000
									}
								}
							}
						}
					}
				}
			}
		}
	}
	JOINT RightUpLeg
	{
		OFFSET 8.655710 0.000000 2.528646
		CHANNELS 3 Xrotation Yrotation Zrotation
		JOINT RightLeg
		{
			OFFSET -0.000003 0.000000 37.889104
			CHANNELS 3 Xrotation Yrotation Zrotation
			JOINT RightFoot
			{
				OFFSET -0.000003 0.000000 37.543788
				CHANNELS 3 Xrotation Yrotation Zrotation
				JOINT RightToeBase
				{
					OFFSET -0.000000 -14.403146 5.242334
					CHANNELS 3 Xrotation Yrotation Zrotation
					End Site
					{
						OFFSET 0.000000 -7.002374 0.000000
					}
				}
			}
		}
	}
	JOINT LeftUpLeg
	{
		OFFSET -8.655710 0.000000 2.528646
		CHANNELS 3 Xrotation Yrotation Zrotation
		JOINT LeftLeg
		{
			OFFSET -0.000003 0.000000 37.889104
			CHANNELS 3 Xrotation Yrotation Zrotation
			JOINT LeftFoot
			{
				OFFSET -0.000003 0.000000 37.543788
				CHANNELS 3 Xrotation Yrotation Zrotation
				JOINT LeftToeBase
				{
					OFFSET -0.000000 -14.403146 5.242334
					CHANNELS 3 Xrotation Yrotation Zrotation
					End Site
					{
						OFFSET 0.000000 -7.002374 0.000000
					}
				}
			}
		}
	}
}
MOTION
Frames: 8
Frame Time: 0.033333
-15.519436 84.932792 237.584762 92.514706 9.057796 83.473606 -6.735801 1.530700 -0.804501 -1.963399 -0.637201 -0.439200 -7.482498 1.075303 -14.427696 -1.891001 -1.865698 -3.734503 -7.320099 -6.729396 -13.240401 3.026107 -10.478198 -37.871586 8.080705 21.763099 3.113797 -4.332446 -79.006901 -19.676347 -0.000000 -0.000006 -33.373004 15.070300 15.768495 0.863795 -11.809201 -13.966201 3.220396 -73.296034 77.235182 81.080629 0.000000 -0.000004 18.441304 3.363100 -4.893501 2.513397 -28.011704 6.486798 29.206902 -7.916700 0.000000 -0.000001 -0.806901 -13.296699 16.641605 26.150206 -0.000000 0.000005 6.287401 1.810498 -22.488403 -5.303201 -0.000000 0.000004 9.061301 -5.797210 -25.430198 13.747803 0.000000 0.000005 
-13.016012 84.313796 236.079543 93.305648 8.847229 82.488284 -6.091496 2.407999 -0.887400 -1.594900 -0.609500 -0.454101 -7.826900 1.135005 -15.182900 -1.804102 -1.849298 -3.968402 -6.829998 -7.274000 -12.945699 3.144503 -9.885899 -37.348597 7.986802 21.206298 3.044395 -14.599050 -79.363901 -29.962055 -0.000000 -0.000009 -35.651801 13.786702 15.666901 0.668494 -11.863197 -13.177901 2.917500 -74.203224 77.537686 81.113520 0.000001 -0.000004 17.656003 2.151700 -4.182300 2.291998 -29.744104 8.033996 28.881601 -8.662001 0.000002 -0.000002 -1.261003 -15.360398 17.245602 26.472408 0.000001 0.000008 6.199205 2.756599 -23.417401 -7.678901 0.000001 0.000003 6.109601 -6.295811 -28.341800 14.558106 0.000002 0.000007 
-10.424958 83.821036 234.112841 94.760230 8.427038 81.235474 -5.364498 3.445500 -0.807599 -1.080701 -0.427400 -0.472100 -8.221600 1.479804 -15.609297 -1.730802 -1.817698 -4.063602 -6.486300 -7.741997 -12.712101 3.070004 -9.447197 -36.968494 7.831203 19.911499 3.317997 -25.402179 -78.879103 -40.710577 -0.000002 -0.000003 -37.395207 11.880402 15.906403 0.710494 -12.098900 -11.909800 2.530998 -72.775918 77.470886 78.984119 0.000000 -0.000004 16.993106 0.174000 -3.322600 1.711399 -30.767499 10.818696 28.161504 -10.982402 0.000001 -0.000002 -2.301200 -17.870796 18.195906 27.059505 0.000001 0.000007 6.714107 4.484400 -22.443303 -11.351202 0.000001 0.000001 4.304298 -4.190910 -28.333401 13.869603 0.000001 0.000002 
-7.914422 83.624674 231.976442 95.971793 8.253697 79.381216 -4.950499 3.717099 -0.787199 -0.868996 -0.249400 -0.500198 -8.374400 2.135505 -15.690000 -1.694599 -1.748799 -4.032498 -6.095898 -8.002298 -12.254501 2.948606 -9.351301 -36.389697 7.408202 19.009296 3.837594 -35.126263 -79.210595 -49.900761 0.000002 -0.000002 -38.389700 10.807201 16.613797 0.596596 -12.388398 -11.251500 2.693499 -71.866231 77.264587 78.268522 -0.000001 -0.000003 15.916904 0.772398 -3.218901 2.032499 -30.306802 13.585694 25.244500 -16.126300 0.000001 -0.000002 -4.315602 -19.531693 20.409507 26.653008 -0.000003 0.000002 7.102401 5.976000 -22.018900 -16.019804 0.000002 -0.000003 5.033900 -3.938208 -26.629501 13.781402 0.000003 0.000008 
-5.526822 83.743561 229.878895 96.427210 9.314635 77.288484 -5.556294 3.152299 -0.791900 -1.321998 -0.289600 -0.499001 -8.045496 2.396503 -15.662498 -1.707304 -1.632899 -3.972100 -6.050401 -7.642197 -12.037503 3.153506 -9.269598 -35.473900 7.199502 19.329998 3.979497 -47.317944 -80.584996 -60.764644 -0.000003 -0.000002 -38.139903 10.715300 16.528493 0.355797 -12.399998 -11.509300 3.104198 -74.723319 77.256283 81.872908 -0.000000 -0.000003 14.942700 -2.376297 -2.968201 1.334297 -28.177694 15.147800 19.482299 -24.406605 0.000004 -0.000004 -8.987705 -18.200095 23.135109 24.008911 -0.000003 0.000006 4.753903 6.943800 -22.324300 -18.039904 0.000001 -0.000001 6.959803 -4.973310 -24.092501 13.142799 0.000001 0.000001 
-3.456722 84.034648 227.900004 96.456726 10.567385 75.126015 -6.560700 2.452399 -0.677302 -1.912900 -0.375800 -0.473297 -7.457300 2.117504 -15.274796 -1.688700 -1.592399 -3.861897 -6.043598 -6.956397 -12.073700 2.971205 -9.291198 -34.819500 7.384802 19.631599 3.869704 -60.616941 -81.351886 -72.715947 -0.000003 -0.000002 -36.426208 9.648698 15.297095 0.724703 -12.086398 -11.829600 3.320397 -78.729020 77.116885 86.556513 0.000003 -0.000004 14.775004 -5.661900 -2.381304 0.520401 -24.297900 15.594603 14.998600 -33.725507 0.000003 -0.000002 -16.337313 -13.141097 23.979205 24.132399 -0.000003 0.000005 1.022805 7.901501 -21.758805 -17.049602 0.000001 0.000000 8.023302 -6.361508 -22.307599 12.876701 -0.000000 -0.000001 
-1.681516 84.400644 226.150421 96.270633 11.164479 72.371595 -7.139497 1.965499 -0.571499 -2.307399 -0.344901 -0.440097 -7.074798 1.500904 -14.331400 -1.605100 -1.662798 -3.685401 -5.759100 -6.600099 -11.947200 2.728202 -9.118302 -34.474605 6.931504 19.304100 4.150495 -69.698562 -81.045882 -81.194060 -0.000001 -0.000003 -34.119606 9.015198 14.348395 1.104598 -11.785897 -12.565105 3.630205 -82.167800 75.987679 91.042304 -0.000000 -0.000003 15.727504 -3.779699 -2.203199 0.958897 -19.729699 14.923703 11.380002 -42.338908 0.000004 -0.000003 -14.606404 -12.979495 22.806902 22.590808 -0.000002 0.000006 -2.251095 8.582198 -20.503500 -15.161903 0.000001 0.000001 8.488498 -7.767708 -20.459199 10.177801 0.000001 0.000001 
-0.059980 84.770717 224.587824 95.643821 11.507706 69.137097 -7.338797 1.352400 -0.597197 -2.457399 -0.406700 -0.402798 -7.073999 0.708104 -13.044403 -1.566699 -1.797298 -3.477104 -5.299198 -6.440098 -11.536003 2.868905 -8.894898 -33.902302 6.140903 18.881198 4.670100 -74.610303 -80.456686 -85.497802 0.000001 -0.000006 -31.907809 7.694101 13.833096 1.492694 -10.911201 -13.731200 4.333691 -84.540102 73.890785 94.266096 -0.000001 -0.000003 18.093702 -1.786699 -2.227800 1.462600 -14.997500 13.271303 9.220299 -49.267606 0.000005 -0.000003 -7.968904 -8.345893 18.204403 24.792806 0.000001 0.000003 -5.231196 8.522101 -18.406401 -12.892902 0.000002 0.000001 8.598100 -7.574909 -18.875601 10.472302 -0.000002 0.000002 
